<svg width="60" height="60" viewBox="0 0 60 60" fill="none" xmlns="http://www.w3.org/2000/svg">
<path fill-rule="evenodd" clip-rule="evenodd" d="M30 54.5191C33.1763 57.9014 37.6033 60 42.5 60C52.165 60 60 51.8243 60 41.7391C60 33.1338 54.2957 25.9188 46.6175 23.9866C47.3189 21.77 47.6088 19.4265 47.4635 17.0827C47.2702 13.9628 46.3125 10.947 44.6822 8.3241C43.0519 5.70115 40.8035 3.55889 38.1524 2.10249C35.5012 0.646081 32.5362 -0.075695 29.5411 0.00627965C26.5461 0.0882543 23.6214 0.971234 21.0471 2.57066C18.4728 4.17008 16.3351 6.43239 14.8388 9.14091C13.3424 11.8494 12.5376 14.9135 12.5013 18.0396C12.4777 20.0681 12.7783 22.0787 13.3838 23.9906C13.1831 24.0413 12.9831 24.0957 12.7837 24.1539C9.23687 25.1897 6.09362 27.3668 3.80157 30.3751C1.50951 33.3835 0.185509 37.0698 0.0180946 40.9091C-0.14932 44.7484 0.84839 48.5449 2.86915 51.758C4.88991 54.9712 7.83069 57.4371 11.2727 58.8047C14.7148 60.1723 18.4826 60.3719 22.0396 59.3749C25.0708 58.5253 27.8172 56.8438 30 54.5191ZM35.8231 6.71917C33.9295 5.67888 31.8116 5.16332 29.6722 5.22188C27.5329 5.28043 25.4438 5.91113 23.605 7.05358C21.7663 8.19602 20.2393 9.81195 19.1705 11.7466C18.1017 13.6813 17.5269 15.8699 17.5009 18.1028C17.4793 19.968 17.8412 21.8119 18.5576 23.5116C20.2557 23.6189 21.94 23.9846 23.5557 24.6064C25.9985 25.5466 28.1963 27.0383 30 28.9592C32.946 25.8221 36.9679 23.7893 41.4427 23.511C42.2488 21.598 42.6034 19.5088 42.474 17.4193C42.3359 15.1908 41.6518 13.0367 40.4873 11.1632C39.3228 9.28964 37.7168 7.75946 35.8231 6.71917ZM26.9975 33.2588C25.6146 31.5724 23.8362 30.2753 21.8255 29.5015C19.3572 28.5515 16.6647 28.4384 14.1312 29.1783C11.5978 29.9181 9.35259 31.4732 7.7154 33.622C6.07822 35.7708 5.13251 38.4039 5.01293 41.1462C4.89334 43.8886 5.60599 46.6004 7.04939 48.8955C8.49279 51.1906 10.5934 52.952 13.052 53.9289C15.5106 54.9057 18.2018 55.0482 20.7426 54.3361C23.1801 53.6529 25.3598 52.2165 26.9975 50.2194C25.7218 47.6854 25 44.8002 25 41.7391C25 38.678 25.7218 35.7929 26.9975 33.2588ZM42.5 54.7826C49.4036 54.7826 55 48.9428 55 41.7391C55 34.5354 49.4036 28.6957 42.5 28.6957C35.5964 28.6957 30 34.5354 30 41.7391C30 48.9428 35.5964 54.7826 42.5 54.7826Z" fill="#6F38DD"/>
</svg>
