<svg width="60" height="60" viewBox="0 0 60 60" fill="none" xmlns="http://www.w3.org/2000/svg">
<path fill-rule="evenodd" clip-rule="evenodd" d="M37.0701 7.10993L29.0091 0.976548C25.8013 -1.46413 21.2782 0.95623 21.355 5.07228L21.548 15.4159L13.413 21.4441C10.1759 23.843 11.0053 29.0369 14.8167 30.2334L21.5446 32.3454L0.7038 53.8851C-0.2346 54.8549 -0.2346 56.4274 0.7038 57.3973C1.6422 58.3671 3.16365 58.3671 4.10205 57.3973L25.1378 35.6561L27.4278 43.0991C28.6349 47.0223 33.6707 47.812 35.9495 44.4354L41.6759 35.95L51.6855 36.015C55.6687 36.0408 57.9515 31.3349 55.5485 28.0516L49.5099 19.8007L52.6628 9.98183C53.9175 6.07457 50.2925 2.37646 46.5287 3.72388L37.0701 7.10993ZM48.1016 8.41731L36.2556 12.658L26.1599 4.97652L26.4016 17.9309L16.2134 25.4808L28.2087 29.2463L32.0077 41.5939L39.1795 30.9667L51.7157 31.0481L44.1528 20.7146L48.1016 8.41731Z" fill="#6F38DD"/>
<path fill-rule="evenodd" clip-rule="evenodd" d="M40.7425 45.6695C38.9805 45.6695 37.477 46.987 37.189 48.7836L36.085 55.6685C35.7213 57.9367 37.4141 60 39.6386 60H40.2911C42.0709 60 43.5838 58.6566 43.852 56.8382L44.8676 49.9534C45.2 47.6998 43.5124 45.6695 41.3067 45.6695H40.7425ZM41.3067 49.0562H40.7425C40.5835 49.0562 40.4477 49.1752 40.4217 49.3374L39.3178 56.2222C39.285 56.427 39.4378 56.6132 39.6386 56.6132H40.2911C40.4518 56.6132 40.5884 56.492 40.6126 56.3278L41.6282 49.443C41.6582 49.2395 41.5058 49.0562 41.3067 49.0562Z" fill="#6F38DD"/>
<path d="M52.6118 45.6695H47.146C47.0162 45.6695 46.9059 45.7677 46.8867 45.9004L44.8938 59.689C44.8701 59.8528 44.9928 60 45.1531 60H47.6453C47.7733 60 47.8825 59.9046 47.9038 59.7742L48.7929 54.3362C48.8142 54.2059 48.9234 54.1104 49.0513 54.1104H51.1681C51.2952 54.1104 51.404 54.0162 51.4263 53.8868L51.8362 51.4997C51.8647 51.3337 51.7412 51.1814 51.5781 51.1814H49.611C49.45 51.1814 49.327 51.0328 49.352 50.8684L49.6765 48.7332C49.6965 48.6014 49.8064 48.5043 49.9355 48.5043H52.205C52.3315 48.5043 52.44 48.4109 52.4628 48.2823L52.8697 45.9893C52.8992 45.8228 52.7756 45.6695 52.6118 45.6695Z" fill="#6F38DD"/>
<path d="M59.7378 45.6695H54.2719C54.1421 45.6695 54.0318 45.7677 54.0126 45.9004L52.0197 59.689C51.996 59.8528 52.1188 60 52.279 60H54.7713C54.8992 60 55.0084 59.9046 55.0297 59.7742L55.9188 54.3362C55.9401 54.2059 56.0493 54.1104 56.1773 54.1104H58.2941C58.4212 54.1104 58.53 54.0162 58.5522 53.8868L58.9621 51.4997C58.9906 51.3337 58.8671 51.1814 58.704 51.1814H56.7369C56.5759 51.1814 56.453 51.0328 56.4779 50.8684L56.8025 48.7332C56.8225 48.6014 56.9323 48.5043 57.0614 48.5043H59.3309C59.4575 48.5043 59.566 48.4109 59.5888 48.2823L59.9956 45.9893C60.0252 45.8228 59.9015 45.6695 59.7378 45.6695Z" fill="#6F38DD"/>
</svg>
