<svg width="60" height="60" viewBox="0 0 60 60" fill="none" xmlns="http://www.w3.org/2000/svg">
<path d="M29.737 4.99998C26.4827 4.99998 23.2603 5.64662 20.2538 6.90298C17.2472 8.15934 14.5154 10.0008 12.2143 12.3223C9.9132 14.6437 8.08785 17.3997 6.8425 20.4328C5.59714 23.4659 4.95617 26.7168 4.95617 29.9999C4.95617 33.2829 5.59714 36.5338 6.8425 39.5669C8.08785 42.6 9.9132 45.356 12.2143 47.6775C14.5154 49.9989 17.2472 51.8404 20.2538 53.0967C22.4943 54.033 24.8548 54.6307 27.2589 54.8744V49.9998C27.2589 48.6191 28.3684 47.4998 29.737 47.4998C31.1056 47.4998 32.2151 48.6191 32.2151 49.9998L32.2151 57.4997C32.2151 58.8804 31.1056 59.9997 29.737 59.9997C25.8319 59.9997 21.965 59.2238 18.3572 57.7161C14.7493 56.2085 11.4711 53.9987 8.70977 51.213C5.94843 48.4272 3.75802 45.1201 2.2636 41.4803C0.769171 37.8406 0 33.9395 0 29.9999C0 26.0602 0.76917 22.1592 2.2636 18.5194C3.75802 14.8797 5.94843 11.5725 8.70977 8.78676C11.4711 6.00101 14.7493 3.79124 18.3571 2.2836C21.965 0.775969 25.8319 0 29.737 0C31.1056 0 32.2151 1.11928 32.2151 2.49999C32.2151 3.88069 31.1056 4.99998 29.737 4.99998Z" fill="#6F38DD"/>
<path d="M57.0984 30.7442C58.4576 30.9062 59.4292 32.1491 59.2686 33.5202C59.098 34.9761 58.822 36.4175 58.4425 37.8327C58.0852 39.1655 56.7245 39.9537 55.4034 39.5932C54.0823 39.2327 53.301 37.86 53.6583 36.5272C53.9745 35.3479 54.2045 34.1468 54.3466 32.9335C54.5072 31.5623 55.7393 30.5821 57.0984 30.7442Z" fill="#6F38DD"/>
<path d="M55.4986 15.0149C54.815 13.8188 53.2996 13.4082 52.114 14.0979C50.9283 14.7875 50.5214 16.3163 51.205 17.5124C51.8099 18.5708 52.337 19.6724 52.7823 20.8086C53.2854 22.0926 54.7251 22.7219 55.9979 22.2143C57.2706 21.7067 57.8945 20.2543 57.3913 18.9703C56.8571 17.6069 56.2244 16.2849 55.4986 15.0149Z" fill="#6F38DD"/>
<path d="M38.6389 3.88776C39.1994 2.62813 40.6659 2.06535 41.9145 2.63076C43.2402 3.2311 44.5206 3.92868 45.7452 4.71788C46.8986 5.46115 47.2363 7.00695 46.4996 8.17052C45.7628 9.33409 44.2306 9.67481 43.0772 8.93154C42.0566 8.27388 40.9897 7.69256 39.8849 7.19227C38.6363 6.62687 38.0785 5.14738 38.6389 3.88776Z" fill="#6F38DD"/>
<path d="M25.0648 34.8891C31.5921 39.7477 39.309 19.8905 38.0808 18.8266C36.8525 17.7627 18.5374 30.0305 25.0648 34.8891Z" fill="#6F38DD"/>
<path fill-rule="evenodd" clip-rule="evenodd" d="M41.7961 46.7771C40.1304 46.7771 38.7093 47.9928 38.4369 49.6506L37.3934 56.0033C37.0496 58.0962 38.6497 60 40.7525 60H41.3694C43.0517 60 44.4819 58.7605 44.7355 57.0826L45.6955 50.7299C46.0097 48.6505 44.4144 46.7771 42.3294 46.7771H41.7961ZM42.3294 49.9021H41.7961C41.6457 49.9021 41.5174 50.0119 41.4929 50.1615L40.4493 56.5142C40.4183 56.7031 40.5627 56.875 40.7525 56.875H41.3694C41.5213 56.875 41.6504 56.7631 41.6733 56.6116L42.6333 50.259C42.6616 50.0712 42.5176 49.9021 42.3294 49.9021Z" fill="#6F38DD"/>
<path d="M53.016 46.7771H47.8492C47.7265 46.7771 47.6223 46.8677 47.6041 46.9902L45.7202 59.7131C45.6979 59.8642 45.8139 60 45.9653 60H48.3212C48.4422 60 48.5454 59.9119 48.5656 59.7917L49.406 54.774C49.4261 54.6537 49.5294 54.5657 49.6503 54.5657H51.6513C51.7715 54.5657 51.8743 54.4787 51.8953 54.3594L52.2828 52.1567C52.3098 52.0036 52.193 51.863 52.0388 51.863H50.1794C50.0272 51.863 49.9109 51.7259 49.9346 51.5742L50.2413 49.6041C50.2602 49.4825 50.3641 49.3929 50.4861 49.3929H52.6315C52.7511 49.3929 52.8536 49.3067 52.8752 49.188L53.2598 47.0722C53.2877 46.9187 53.1708 46.7771 53.016 46.7771Z" fill="#6F38DD"/>
<path d="M59.7521 46.7771H54.5853C54.4626 46.7771 54.3583 46.8677 54.3402 46.9902L52.4563 59.7131C52.4339 59.8642 52.55 60 52.7014 60H55.0573C55.1783 60 55.2815 59.9119 55.3017 59.7917L56.1421 54.774C56.1622 54.6537 56.2655 54.5657 56.3864 54.5657H58.3874C58.5076 54.5657 58.6104 54.4787 58.6314 54.3594L59.0189 52.1567C59.0459 52.0036 58.9291 51.863 58.7749 51.863H56.9154C56.7632 51.863 56.647 51.7259 56.6706 51.5742L56.9774 49.6041C56.9963 49.4825 57.1002 49.3929 57.2222 49.3929H59.3675C59.4872 49.3929 59.5897 49.3067 59.6113 49.188L59.9959 47.0722C60.0238 46.9187 59.9069 46.7771 59.7521 46.7771Z" fill="#6F38DD"/>
</svg>
