<svg width="60" height="60" viewBox="0 0 60 60" fill="none" xmlns="http://www.w3.org/2000/svg">
<path d="M15.9451 2.5C15.9451 1.11929 17.1349 0 18.6026 0H35.8764C37.3441 0 38.5339 1.11929 38.5339 2.5C38.5339 3.88071 37.3441 5 35.8764 5H18.6026C17.1349 5 15.9451 3.88071 15.9451 2.5Z" fill="#6F38DD"/>
<path d="M49.0459 8.88185C50.1133 9.82948 50.162 11.4117 49.1547 12.4159L45.875 15.6853C48.4199 17.931 50.4936 20.6257 51.969 23.631C52.5844 24.8845 52.0031 26.37 50.6706 26.9489C49.3382 27.5278 47.7591 26.9809 47.1437 25.7274C45.4174 22.2108 42.6732 19.2226 39.2254 17.105C35.7777 14.9874 31.7657 13.8259 27.6489 13.7536C23.532 13.6813 19.4767 14.701 15.9473 16.696C12.4179 18.6911 9.55707 21.5808 7.6923 25.0343C5.82753 28.4878 5.03424 32.3655 5.40325 36.2234C5.77226 40.0813 7.28867 43.7635 9.77883 46.8484C12.269 49.9332 15.6323 52.2961 19.4836 53.6663C23.3349 55.0366 27.5185 55.3589 31.5555 54.5964C32.9945 54.3246 34.3952 55.2016 34.6842 56.5553C34.9731 57.909 34.0408 59.2267 32.6018 59.4986C27.5862 60.4459 22.3883 60.0455 17.6034 58.343C12.8184 56.6406 8.6398 53.7049 5.54595 49.8722C2.45211 46.0395 0.568094 41.4647 0.109623 36.6715C-0.348847 31.8783 0.636759 27.0606 2.95359 22.7699C5.27043 18.4791 8.82484 14.8889 13.2099 12.4102C17.5949 9.93154 22.6333 8.6646 27.7481 8.75447C32.6682 8.84091 37.4678 10.1795 41.6389 12.6231L45.2892 8.98424C46.2965 7.98006 47.9784 7.93423 49.0459 8.88185Z" fill="#6F38DD"/>
<path d="M30.5613 23.75C30.5613 22.3693 29.3715 21.25 27.9038 21.25C26.4361 21.25 25.2463 22.3693 25.2463 23.75V33.8502L16.8731 40.6019C15.7587 41.5004 15.6297 43.0787 16.5848 44.127C17.54 45.1753 19.2177 45.2967 20.332 44.3981L30.5613 36.1498V23.75Z" fill="#6F38DD"/>
<path d="M49.1113 39.1494C48.9052 39.4964 48.8131 39.893 48.8466 40.2892C48.9631 41.6656 47.8715 42.8702 46.4084 42.9798C44.9454 43.0894 43.6649 42.0625 43.5484 40.6861C43.4314 39.3041 43.7527 37.9205 44.4716 36.7103C45.1905 35.5001 46.2747 34.5176 47.5872 33.8871C48.8996 33.2565 50.3814 33.0063 51.845 33.1679C53.3087 33.3296 54.6885 33.896 55.81 34.7954C56.9315 35.6948 57.7443 36.8868 58.1457 38.2208C58.547 39.5548 58.5188 40.9707 58.0647 42.2896C57.8243 42.988 57.4701 43.6425 57.0184 44.2314C58.0238 45.0611 58.8178 46.0999 59.3335 47.2711C59.9962 48.7762 60.1696 50.4323 59.8318 52.03C59.4939 53.6278 58.66 55.0954 57.4356 56.2473C56.2111 57.3992 54.651 58.1836 52.9526 58.5015C51.2542 58.8193 49.4938 58.6561 47.8939 58.0327C46.294 57.4093 44.9266 56.3536 43.9646 54.9991C43.0025 53.6446 42.489 52.0522 42.489 50.4231C42.489 49.0424 43.6788 47.9231 45.1465 47.9231C46.6142 47.9231 47.804 49.0424 47.804 50.4231C47.804 51.0633 48.0058 51.689 48.3838 52.2213C48.7619 52.7535 49.2992 53.1684 49.9279 53.4133C50.5565 53.6583 51.2483 53.7224 51.9157 53.5975C52.5831 53.4726 53.1961 53.1644 53.6773 52.7117C54.1584 52.2591 54.4861 51.6824 54.6189 51.0546C54.7516 50.4267 54.6835 49.776 54.4231 49.1846C54.1627 48.5932 53.7217 48.0877 53.1559 47.732C52.5901 47.3764 51.925 47.1866 51.2445 47.1866C49.7768 47.1866 48.587 46.0673 48.587 44.6866C48.587 43.7438 49.1417 42.923 49.9608 42.4971C50.3082 42.295 50.7105 42.1656 51.1456 42.133C51.5668 42.1014 51.9686 41.9531 52.3001 41.7067C52.6317 41.4604 52.8781 41.1271 53.0083 40.7489C53.1385 40.3708 53.1466 39.9649 53.0315 39.5824C52.9165 39.2 52.6834 38.8582 52.3619 38.6004C52.0404 38.3425 51.6448 38.1802 51.2252 38.1338C50.8056 38.0875 50.3808 38.1592 50.0045 38.34C49.6282 38.5208 49.3174 38.8024 49.1113 39.1494Z" fill="#6F38DD"/>
</svg>
