<svg width="60" height="60" viewBox="0 0 60 60" fill="none" xmlns="http://www.w3.org/2000/svg">
<path d="M15.5455 3.55402C16.3626 1.44458 18.8697 0 21.7135 0H45.9234C50.8877 0 53.9851 4.16652 51.4923 7.4912L42.9007 18.9502C42.776 19.1164 42.9309 19.3248 43.1791 19.3248H53.5495C58.6928 19.3248 61.7606 23.764 58.9076 27.0781L49.7647 37.6989C49.483 38.0262 48.885 38.072 48.5258 37.7939L45.043 35.0967C44.7717 34.8866 44.7296 34.5574 44.9424 34.3101L53.5495 24.3118H42.6198C37.6555 24.3118 34.5581 20.1453 37.0509 16.8206L45.6426 5.3616C45.7672 5.19536 45.6123 4.98704 45.3641 4.98704H22.3125C21.957 4.98704 21.6436 5.16761 21.5414 5.43129L18.5122 13.2511C18.3372 13.7029 17.6027 13.8463 17.172 13.5127L13.2932 10.5089C13.0838 10.3468 13.0063 10.1087 13.0914 9.88899L15.5455 3.55402Z" fill="#6F38DD"/>
<path fill-rule="evenodd" clip-rule="evenodd" d="M0.943068 11.9512C2.20049 10.9774 4.23918 10.9774 5.4966 11.9512L37.0026 36.3502L37.0279 36.3697L42.1598 40.3439L42.1854 40.3638L55.404 50.6007C56.6615 51.5745 56.6615 53.1533 55.404 54.1271C54.1466 55.1009 52.1079 55.1009 50.8505 54.1271L42.2059 47.4325L31.9807 57.9908C28.0784 62.0201 19.8016 59.5398 20.4183 54.5258L22.2174 39.896H10.799C6.46634 39.896 3.36991 36.6493 4.64408 33.4424L9.23153 21.8963L0.943068 15.4775C-0.314356 14.5038 -0.314356 12.925 0.943068 11.9512ZM14.3838 25.8864L26.0345 34.909H11.2349C11.0183 34.909 10.8635 34.7467 10.9272 34.5863L14.3838 25.8864Z" fill="#6F38DD"/>
</svg>
